<?xml version="1.0" standalone="no"?>
<!DOCTYPE svg PUBLIC "-//W3C//DTD SVG 20010904//EN"
 "http://www.w3.org/TR/2001/REC-SVG-20010904/DTD/svg10.dtd">
<svg version="1.0" xmlns="http://www.w3.org/2000/svg"
 width="500.000000pt" height="500.000000pt" viewBox="0 0 500.000000 500.000000"
 preserveAspectRatio="xMidYMid meet">
<metadata>
Created by potrace 1.11, written by Peter Selinger 2001-2013
</metadata>
<g transform="translate(0.000000,500.000000) scale(0.100000,-0.100000)"
fill="#000000" stroke="none">
<path d="M2366 4933 c-1 -1 -33 -4 -71 -7 -39 -3 -87 -8 -107 -11 -21 -3 -53
-7 -70 -10 -178 -25 -398 -87 -583 -163 -68 -28 -297 -147 -360 -187 -297
-189 -587 -479 -771 -771 -155 -247 -287 -582 -329 -834 -29 -175 -37 -258
-39 -420 -5 -395 80 -764 257 -1116 118 -234 254 -421 447 -615 317 -318 633
-505 1088 -643 69 -21 280 -62 357 -71 33 -3 78 -9 100 -11 57 -8 359 -7 430
0 136 15 145 16 295 42 48 9 216 56 305 86 279 95 547 247 790 448 60 50 272
267 326 335 234 292 405 649 480 1000 7 33 13 62 14 65 1 3 5 30 9 60 5 30 10
64 12 75 10 48 18 200 18 320 0 197 -16 340 -55 515 -11 47 -22 94 -24 105 -3
11 -18 61 -34 110 -214 661 -697 1198 -1337 1484 -158 71 -394 146 -524 167
-14 2 -34 6 -46 9 -12 3 -36 7 -55 9 -19 3 -50 7 -69 10 -101 14 -444 29 -454
19z"/>
</g>
</svg>
